<?xml version="1.0" encoding="utf-8"?>
<!-- Generator: Adobe Illustrator 21.1.0, SVG Export Plug-In . SVG Version: 6.00 Build 0)  -->
<svg version="1.1" id="Layer_1" xmlns="http://www.w3.org/2000/svg" xmlns:xlink="http://www.w3.org/1999/xlink" x="0px" y="0px"
	 viewBox="0 0 77.4 78.4" style="enable-background:new 0 0 77.4 78.4;" xml:space="preserve">
<style type="text/css">
	.st0{fill:none;stroke:#231F20;stroke-width:10;stroke-miterlimit:10;}
</style>
<g>
	<g>
		<path class="st0" d="M69.7,26.6V10.3c0-3.4-3.1-5.9-6.4-5.2L50.1,7.8c-3.6-1.3-7.5-2-11.5-2c-4,0-7.9,0.7-11.5,2L14,5.1
			C10.6,4.4,7.5,7,7.5,10.3v16.3c-2.1,5-3,10.5-2.4,16.4c1.7,16.1,15,28.9,31.2,30c19.6,1.3,35.9-14.2,35.9-33.5
			C72.2,34.9,71.3,30.6,69.7,26.6z"/>
	</g>
	<circle class="st0" cx="38.6" cy="39" r="10.5"/>
</g>
</svg>
